<mxfile host="app.diagrams.net" modified="2021-08-09T07:12:34.431Z" agent="5.0 (Windows NT 10.0; Win64; x64) AppleWebKit/537.36 (KHTML, like Gecko) Chrome/92.0.4515.131 Safari/537.36" etag="D-tZqOGP38htm0MisNa4" version="14.9.5" type="github">
  <diagram id="07fea595-8f29-1299-0266-81d95cde20df" name="Page-1">
    <mxGraphModel dx="1422" dy="-1719" grid="1" gridSize="10" guides="1" tooltips="1" connect="1" arrows="1" fold="1" page="1" pageScale="1" pageWidth="1169" pageHeight="827" background="none" math="0" shadow="0">
      <root>
        <mxCell id="0" />
        <mxCell id="1" parent="0" />
        <mxCell id="645" value="" style="triangle;whiteSpace=wrap;html=1;shadow=0;labelBackgroundColor=none;strokeColor=none;fillColor=#FFFFFF;fontFamily=Helvetica;fontSize=17;fontColor=#23445d;align=center;rotation=90;gradientColor=none;flipV=1;flipH=1;opacity=20;" parent="1" vertex="1">
          <mxGeometry x="325" y="2972.6666666666665" width="72" height="152" as="geometry" />
        </mxCell>
        <mxCell id="646" value="" style="shape=hexagon;perimeter=hexagonPerimeter2;whiteSpace=wrap;html=1;shadow=0;labelBackgroundColor=none;strokeColor=#23445D;fillColor=#ffffff;gradientColor=none;fontFamily=Helvetica;fontSize=23;fontColor=#23445D;align=center;strokeWidth=3;size=0.22902953586497823;" parent="1" vertex="1">
          <mxGeometry x="444.5" y="2700" width="301" height="254.93" as="geometry" />
        </mxCell>
        <mxCell id="651" value="" style="shape=hexagon;perimeter=hexagonPerimeter2;whiteSpace=wrap;html=1;shadow=0;labelBackgroundColor=none;strokeColor=#23445D;fillColor=#ffffff;gradientColor=none;fontFamily=Helvetica;fontSize=23;fontColor=#23445D;align=center;strokeWidth=3;" parent="1" vertex="1">
          <mxGeometry x="210.0000000000001" y="2824.1995614035086" width="311.84210526315786" height="259.86842105263156" as="geometry" />
        </mxCell>
        <mxCell id="8jx-4p8cYo27xZ5NV1dN-658" value="" style="shape=hexagon;perimeter=hexagonPerimeter2;whiteSpace=wrap;html=1;shadow=0;labelBackgroundColor=none;strokeColor=#23445D;fillColor=#ffffff;gradientColor=none;fontFamily=Helvetica;fontSize=23;fontColor=#23445D;align=center;strokeWidth=3;" vertex="1" parent="1">
          <mxGeometry x="444.50000000000017" y="2954.9295614035086" width="311.84210526315786" height="259.86842105263156" as="geometry" />
        </mxCell>
        <mxCell id="8jx-4p8cYo27xZ5NV1dN-661" value="" style="shape=image;verticalLabelPosition=bottom;labelBackgroundColor=#ffffff;verticalAlign=top;aspect=fixed;imageAspect=0;image=data:image/png,iVBORw0KGgoAAAANSUhEUgAAAEEAAABaCAYAAADn5jsdAAALIElEQVR4Ac2b/W8VxxWG+dMIODbGxgVD4WKHVAEHK1CwgaAGtaAoQDCkbWipClGhH0nllqAmtKQ/FFVVA0ql2onUBCIlNFKRSeJQ5avgUlSEtnrWfYfj8ezHvXd2byytzu7szJnzvnPmzJmd6yVJzX+3b9+uucfi7pYUV4lbY27ui7gKI2irnYTrM9eSO3f+HcH0eCpqJ2HqzTeSc+fOxUMQQVPtJCxdujQZGBiIYHo8FR0hYcuWLcn09HQ8FG1q6ggJeMPIyEibpsdr3jESIGJ2djYekjY0dZSEiYmJNkyP17SjJPT39yf379+Ph6ZFTR0lgSlx61bnk6eOk/DhRx+0OH7xmnWchJkbHyRzc7fiIWpB01eChJs3P2rB9HhNOk7CHy6+luAN9+7di4eqSU21knD16jsJwdBeZ376QkrCZ5//s0nT41WvlQQAWwK4FwmdDJC1knDixPOZJHQyQNZKwu4947kkdMobaiOBpKiIBLzh7t078SZ7SU21kXB95v1k1+6xRZ6w/8C+hHe6Pv3sk5Kmx6tWKwl+UOR51+6djgARce/ef+MhLKGpNhKu/f3dRV4ACUPDGxM+uTEVdH3x5aclTI9XpRYSALdqVX+QBBEhApB1B8jKSSAgvn75j5kEaIpYErivcz9ROQkAOv/bc4UkQJQl4uPZ6/H8vUBTpSTgBQALJUnyAEmIsiRwX9d+olISBCqUHwi8JESpvmRd+4nKSJAXAEhAu7qWu3uVSUKUwFtZhzdURoKAsPwJaFdXl7tXWU9PjytTGyshs+q/ykmwQfH06VMOsEh49shBV+bnC5BRx3JZCQl2JG1QXLZsmQMsEh566MH3hVBwRFfVy2V0EmwsAICCYtfDXcnkr15cRIItCwVHdMzO3qh0RkQn4frMe4m9NOLEg7Hx7YtI+OaOJxLFivl9xML20lXlfiIqCf+69fmCzdBfpy450MOPDCXd3Q+7Z5GD3LRp2JVrE+XLKneXUUmwsYD7X7x4xoH7/vPHkitX33LPIuGdq28lY7t2uHI/c5ROAmRVp1XRSPBjAcZ/66knHbgDB74d3EQ1Nm5I9jy5y9Wb/PVLwXwBfVUtl1FI4GuQRsxKtsmMOHOeXeTKlb0OrDyht3dFwrV8+fzKAVlWh72varmMQgKHJ9ZY7nFzAV27bjDhe0JoN0k9LgVHyPJ12ecqlsu2SQhNA4y2SdJT+/Ymvb29ydBwwxEjgjY9+kjqIVpKKQ8lTSKiitOqtkmQcb6cOHbYAWZabGisT8bHHwRAkQB4juhHR0dc/by4QD+x9xOVkbBu3doUVF/fytQrMN5OEZHANOGynkNA9Um1z7F3l22RkDUVfLBPP7M/4Qp9YqPs6LHDydj4jtJxIXaAbJmErBWBEbOjumvPuAN36NlnnMvLE3bs3Ja+7+7pTvbu3ePe58UF+ogZIFsmIbQiyGUZdYHkrBF3xztsnAi9/87+fa4diZb0hWRMb2iZBD+ttc+Dg2tSMCyN711726XSf7500YEUCX+7MuXec798+fyHlye2jbpyq9ve/+dunJ8Ht0SCv0ewhtn9wmOPPZr0r+pLjh9/Lj194l7grTx0+Onkhye+l77bvPkbrs77hkDbh+5j7SdaIiHknipjeRPA37x6Nl36GN1VA/3JhQuvuHeq85Mzp1zMYBr9cvLnro5+wCHdIRljuYxOgpKeFPiq/vT3B1oClUaLAOTW0ZE0kwzFDGJICLgti3Fa1TQJWcsihgFWAMkEebYG2/eqZ99zDxnkFrwfXLtmQXu/Ls8xAmTTJIQMURnuK3BIRhJQvIeAvNWBOvKGnp5up6doqaRdu8tlUyTkeQHGWJDTb/4lfSYl3jr6eLo/sO9FFtOn0VifflMgcWJJvfzGnxwJ+jkP+rOudk+rmiIhywiVa84zzykjaeJ7wfDwxkWbJJEAMWyuCJwjj29O4wNtfV3qI0u2EyBLk5CXIWIYbitgx3/w3fQDK0AU4ZkOjKrqSCqZQgcrC97AN4Vjzx1xdTWlsgigvJ39RGkS8jJEjLCf1vv6+tyv0qzhgBF4SbzF1oEsq4t6RbtKtW/VG0qToI6ypNw3ZLQCXmgDRTsuS4YfRDW9svpWOTGrlb8oJNgRZhssYCQ+zHkFPMDJAyQBwJTRd4V52Zc+8zFG9cpMiVaXy1IkkKMrVQ3JycmfOWNJm9++MpWeMXDiBAFnX37JtRcoSfSRHp8+8+M0eFK/d+WK9Pl3Fx78roE+Qn37ZbfnvmzaGUqR8MnNG7kGbN06/1VoQ+PrycTRg+l+AVCAe/X82WRoqJFe3Au8JPXYU3Dw8vqli2k/SOnRt0f68AGHnj+e/Ud8EopyAzsVuru7XZqseSrJnLdxQyTg/llnDegm81TdMlOC/poNkLmeULQs0qHdMLEqACrL2KyYIKJ8CTnbto86EsokTuhodrnMJaFoWaRDIjcjxSgDUrkAAVFkqDxrdbArAzoBD5kKqCRc6sMnKvRMgGzmtCqXhFAHtswmSPZEGfBKkW20D507aJpAIquJTqpsEmXzhjJ7CWxsZrlsi4Qs4zTy/f196Why8iRX1vyWxGBI4zwyXU0G+pOXz00uSKB4r/qQawci676Z5TKThKKASOcKdEieBR43tgFP7q36AoSUxyBpbz3DThNNO3RTLwu8LS+7u8wkwSoL3VvXPvXCj9KR9sH77fyttkhQ7LD1fTJ4FnmWHNvGvy97WhUkoYwXaAQxDLe3I+8bo2dGUEAkIVPvQ1JkbNzYSFasWJG2p69Q3VBZmeUySEJImS0DDMABgmFFQKhPTMBTBF6SMoJhyBtsn5ChxIm2RfXVtsxyuYiEMl5gXRODCJCheWrBy1MEXlJ1eMa7QuAogyh7tG9XIwEOyTIBchEJoVTUL7P/vDE1fTmZOHro/6nyyTRVpj4p8nw6PObSYcoFXlK62W/4elRGXT7Jk4aTgvOMbrUtkkX7iQUk5J0nqCMOSATgyNGDzhAOVsj/mR6rV38tvadM7STVVlLlkujfObY94ViONJw+7AHNK2b/wb3a5cmZD6/l7icWkBByJ7/M5gY2FiiAcRrNj7RYDinz2wu8pP9esYOjelJmXw/TR7Gl7HcG+mALkPXXNAla65EoZ9nj3jdWpCgWCKzAS6o8q77VL9LtyqQy6cmSeQHSkVAmINp13n5HDI24jNF3Q8iwabZIAESIRLWXtCS99vvzbkpCiOoUyazl0pFQpID3AJHxfErPA2/1aQWQG0sHkrJW9KwZXO1sCa0otn/dZ51WpSSU8QLmqoznR5l+fq+O8iRkSIckZXlt/HfUJ0O1OYP2JX5d/zlruUxJ8CuHnnFZGS7JFrfsKEqn2kqqvEjKm5SkqT0SbypLZmg/UYoEgKpTOvQNaYYM6ZFsFTynVnZ6lh2M0GlVKRL8zrJGpQwZAi+ZRUJmH431zvsIqtKDp2bp8suZ/vZviV/Bf7YR3Xe7TENzpomMlvT7y9RpwNs22mKjr6w30N4SUUiCXZOz8vVMwwNkCLykAGXqyACvdnaqNuMNtNdfLgkYJmORRUtRJhBDhtXHfWabAvAiAYmHSm/Z5GkBCXk59+kzJ51yNjd5de27+cOUk4sDaGO90yej/SDLL1/ZfFl9RffWTv+/8Iva4g25nqCpANPNMKxRyhplEWAl0b6ZOa0+kHiodBHE7buie2JDLgkAh4hWCLCd55HRDnjbBwQSJFuxNZcE20mMe8jQiEnG0NuujspIUORtVpLftwuq2faVkNAs8Lz6dZCSZowxOsoDEutdDDt9L8G2lIRYRn7V9PiA/WfZ+z9Y+RYDt0uurQAAAABJRU5ErkJggg==;" vertex="1" parent="1">
          <mxGeometry x="571.25" y="2794.58" width="47.5" height="65.77" as="geometry" />
        </mxCell>
        <mxCell id="8jx-4p8cYo27xZ5NV1dN-662" value="" style="shape=image;verticalLabelPosition=bottom;labelBackgroundColor=#ffffff;verticalAlign=top;aspect=fixed;imageAspect=0;image=data:image/png,iVBORw0KGgoAAAANSUhEUgAAAEEAAABaCAYAAADn5jsdAAALIElEQVR4Ac2b/W8VxxWG+dMIODbGxgVD4WKHVAEHK1CwgaAGtaAoQDCkbWipClGhH0nllqAmtKQ/FFVVA0ql2onUBCIlNFKRSeJQ5avgUlSEtnrWfYfj8ezHvXd2byytzu7szJnzvnPmzJmd6yVJzX+3b9+uucfi7pYUV4lbY27ui7gKI2irnYTrM9eSO3f+HcH0eCpqJ2HqzTeSc+fOxUMQQVPtJCxdujQZGBiIYHo8FR0hYcuWLcn09HQ8FG1q6ggJeMPIyEibpsdr3jESIGJ2djYekjY0dZSEiYmJNkyP17SjJPT39yf379+Ph6ZFTR0lgSlx61bnk6eOk/DhRx+0OH7xmnWchJkbHyRzc7fiIWpB01eChJs3P2rB9HhNOk7CHy6+luAN9+7di4eqSU21knD16jsJwdBeZ376QkrCZ5//s0nT41WvlQQAWwK4FwmdDJC1knDixPOZJHQyQNZKwu4947kkdMobaiOBpKiIBLzh7t078SZ7SU21kXB95v1k1+6xRZ6w/8C+hHe6Pv3sk5Kmx6tWKwl+UOR51+6djgARce/ef+MhLKGpNhKu/f3dRV4ACUPDGxM+uTEVdH3x5aclTI9XpRYSALdqVX+QBBEhApB1B8jKSSAgvn75j5kEaIpYErivcz9ROQkAOv/bc4UkQJQl4uPZ6/H8vUBTpSTgBQALJUnyAEmIsiRwX9d+olISBCqUHwi8JESpvmRd+4nKSJAXAEhAu7qWu3uVSUKUwFtZhzdURoKAsPwJaFdXl7tXWU9PjytTGyshs+q/ykmwQfH06VMOsEh49shBV+bnC5BRx3JZCQl2JG1QXLZsmQMsEh566MH3hVBwRFfVy2V0EmwsAICCYtfDXcnkr15cRIItCwVHdMzO3qh0RkQn4frMe4m9NOLEg7Hx7YtI+OaOJxLFivl9xML20lXlfiIqCf+69fmCzdBfpy450MOPDCXd3Q+7Z5GD3LRp2JVrE+XLKneXUUmwsYD7X7x4xoH7/vPHkitX33LPIuGdq28lY7t2uHI/c5ROAmRVp1XRSPBjAcZ/66knHbgDB74d3EQ1Nm5I9jy5y9Wb/PVLwXwBfVUtl1FI4GuQRsxKtsmMOHOeXeTKlb0OrDyht3dFwrV8+fzKAVlWh72varmMQgKHJ9ZY7nFzAV27bjDhe0JoN0k9LgVHyPJ12ecqlsu2SQhNA4y2SdJT+/Ymvb29ydBwwxEjgjY9+kjqIVpKKQ8lTSKiitOqtkmQcb6cOHbYAWZabGisT8bHHwRAkQB4juhHR0dc/by4QD+x9xOVkbBu3doUVF/fytQrMN5OEZHANOGynkNA9Um1z7F3l22RkDUVfLBPP7M/4Qp9YqPs6LHDydj4jtJxIXaAbJmErBWBEbOjumvPuAN36NlnnMvLE3bs3Ja+7+7pTvbu3ePe58UF+ogZIFsmIbQiyGUZdYHkrBF3xztsnAi9/87+fa4diZb0hWRMb2iZBD+ttc+Dg2tSMCyN711726XSf7500YEUCX+7MuXec798+fyHlye2jbpyq9ve/+dunJ8Ht0SCv0ewhtn9wmOPPZr0r+pLjh9/Lj194l7grTx0+Onkhye+l77bvPkbrs77hkDbh+5j7SdaIiHknipjeRPA37x6Nl36GN1VA/3JhQuvuHeq85Mzp1zMYBr9cvLnro5+wCHdIRljuYxOgpKeFPiq/vT3B1oClUaLAOTW0ZE0kwzFDGJICLgti3Fa1TQJWcsihgFWAMkEebYG2/eqZ99zDxnkFrwfXLtmQXu/Ls8xAmTTJIQMURnuK3BIRhJQvIeAvNWBOvKGnp5up6doqaRdu8tlUyTkeQHGWJDTb/4lfSYl3jr6eLo/sO9FFtOn0VifflMgcWJJvfzGnxwJ+jkP+rOudk+rmiIhywiVa84zzykjaeJ7wfDwxkWbJJEAMWyuCJwjj29O4wNtfV3qI0u2EyBLk5CXIWIYbitgx3/w3fQDK0AU4ZkOjKrqSCqZQgcrC97AN4Vjzx1xdTWlsgigvJ39RGkS8jJEjLCf1vv6+tyv0qzhgBF4SbzF1oEsq4t6RbtKtW/VG0qToI6ypNw3ZLQCXmgDRTsuS4YfRDW9svpWOTGrlb8oJNgRZhssYCQ+zHkFPMDJAyQBwJTRd4V52Zc+8zFG9cpMiVaXy1IkkKMrVQ3JycmfOWNJm9++MpWeMXDiBAFnX37JtRcoSfSRHp8+8+M0eFK/d+WK9Pl3Fx78roE+Qn37ZbfnvmzaGUqR8MnNG7kGbN06/1VoQ+PrycTRg+l+AVCAe/X82WRoqJFe3Au8JPXYU3Dw8vqli2k/SOnRt0f68AGHnj+e/Ud8EopyAzsVuru7XZqseSrJnLdxQyTg/llnDegm81TdMlOC/poNkLmeULQs0qHdMLEqACrL2KyYIKJ8CTnbto86EsokTuhodrnMJaFoWaRDIjcjxSgDUrkAAVFkqDxrdbArAzoBD5kKqCRc6sMnKvRMgGzmtCqXhFAHtswmSPZEGfBKkW20D507aJpAIquJTqpsEmXzhjJ7CWxsZrlsi4Qs4zTy/f196Why8iRX1vyWxGBI4zwyXU0G+pOXz00uSKB4r/qQawci676Z5TKThKKASOcKdEieBR43tgFP7q36AoSUxyBpbz3DThNNO3RTLwu8LS+7u8wkwSoL3VvXPvXCj9KR9sH77fyttkhQ7LD1fTJ4FnmWHNvGvy97WhUkoYwXaAQxDLe3I+8bo2dGUEAkIVPvQ1JkbNzYSFasWJG2p69Q3VBZmeUySEJImS0DDMABgmFFQKhPTMBTBF6SMoJhyBtsn5ChxIm2RfXVtsxyuYiEMl5gXRODCJCheWrBy1MEXlJ1eMa7QuAogyh7tG9XIwEOyTIBchEJoVTUL7P/vDE1fTmZOHro/6nyyTRVpj4p8nw6PObSYcoFXlK62W/4elRGXT7Jk4aTgvOMbrUtkkX7iQUk5J0nqCMOSATgyNGDzhAOVsj/mR6rV38tvadM7STVVlLlkujfObY94ViONJw+7AHNK2b/wb3a5cmZD6/l7icWkBByJ7/M5gY2FiiAcRrNj7RYDinz2wu8pP9esYOjelJmXw/TR7Gl7HcG+mALkPXXNAla65EoZ9nj3jdWpCgWCKzAS6o8q77VL9LtyqQy6cmSeQHSkVAmINp13n5HDI24jNF3Q8iwabZIAESIRLWXtCS99vvzbkpCiOoUyazl0pFQpID3AJHxfErPA2/1aQWQG0sHkrJW9KwZXO1sCa0otn/dZ51WpSSU8QLmqoznR5l+fq+O8iRkSIckZXlt/HfUJ0O1OYP2JX5d/zlruUxJ8CuHnnFZGS7JFrfsKEqn2kqqvEjKm5SkqT0SbypLZmg/UYoEgKpTOvQNaYYM6ZFsFTynVnZ6lh2M0GlVKRL8zrJGpQwZAi+ZRUJmH431zvsIqtKDp2bp8suZ/vZviV/Bf7YR3Xe7TENzpomMlvT7y9RpwNs22mKjr6w30N4SUUiCXZOz8vVMwwNkCLykAGXqyACvdnaqNuMNtNdfLgkYJmORRUtRJhBDhtXHfWabAvAiAYmHSm/Z5GkBCXk59+kzJ51yNjd5de27+cOUk4sDaGO90yej/SDLL1/ZfFl9RffWTv+/8Iva4g25nqCpANPNMKxRyhplEWAl0b6ZOa0+kHiodBHE7buie2JDLgkAh4hWCLCd55HRDnjbBwQSJFuxNZcE20mMe8jQiEnG0NuujspIUORtVpLftwuq2faVkNAs8Lz6dZCSZowxOsoDEutdDDt9L8G2lIRYRn7V9PiA/WfZ+z9Y+RYDt0uurQAAAABJRU5ErkJggg==;" vertex="1" parent="1">
          <mxGeometry x="342.16999999999996" y="2910" width="47.5" height="65.77" as="geometry" />
        </mxCell>
        <mxCell id="8jx-4p8cYo27xZ5NV1dN-663" value="" style="shape=image;verticalLabelPosition=bottom;labelBackgroundColor=#ffffff;verticalAlign=top;aspect=fixed;imageAspect=0;image=data:image/png,iVBORw0KGgoAAAANSUhEUgAAAEEAAABaCAYAAADn5jsdAAALIElEQVR4Ac2b/W8VxxWG+dMIODbGxgVD4WKHVAEHK1CwgaAGtaAoQDCkbWipClGhH0nllqAmtKQ/FFVVA0ql2onUBCIlNFKRSeJQ5avgUlSEtnrWfYfj8ezHvXd2byytzu7szJnzvnPmzJmd6yVJzX+3b9+uucfi7pYUV4lbY27ui7gKI2irnYTrM9eSO3f+HcH0eCpqJ2HqzTeSc+fOxUMQQVPtJCxdujQZGBiIYHo8FR0hYcuWLcn09HQ8FG1q6ggJeMPIyEibpsdr3jESIGJ2djYekjY0dZSEiYmJNkyP17SjJPT39yf379+Ph6ZFTR0lgSlx61bnk6eOk/DhRx+0OH7xmnWchJkbHyRzc7fiIWpB01eChJs3P2rB9HhNOk7CHy6+luAN9+7di4eqSU21knD16jsJwdBeZ376QkrCZ5//s0nT41WvlQQAWwK4FwmdDJC1knDixPOZJHQyQNZKwu4947kkdMobaiOBpKiIBLzh7t078SZ7SU21kXB95v1k1+6xRZ6w/8C+hHe6Pv3sk5Kmx6tWKwl+UOR51+6djgARce/ef+MhLKGpNhKu/f3dRV4ACUPDGxM+uTEVdH3x5aclTI9XpRYSALdqVX+QBBEhApB1B8jKSSAgvn75j5kEaIpYErivcz9ROQkAOv/bc4UkQJQl4uPZ6/H8vUBTpSTgBQALJUnyAEmIsiRwX9d+olISBCqUHwi8JESpvmRd+4nKSJAXAEhAu7qWu3uVSUKUwFtZhzdURoKAsPwJaFdXl7tXWU9PjytTGyshs+q/ykmwQfH06VMOsEh49shBV+bnC5BRx3JZCQl2JG1QXLZsmQMsEh566MH3hVBwRFfVy2V0EmwsAICCYtfDXcnkr15cRIItCwVHdMzO3qh0RkQn4frMe4m9NOLEg7Hx7YtI+OaOJxLFivl9xML20lXlfiIqCf+69fmCzdBfpy450MOPDCXd3Q+7Z5GD3LRp2JVrE+XLKneXUUmwsYD7X7x4xoH7/vPHkitX33LPIuGdq28lY7t2uHI/c5ROAmRVp1XRSPBjAcZ/66knHbgDB74d3EQ1Nm5I9jy5y9Wb/PVLwXwBfVUtl1FI4GuQRsxKtsmMOHOeXeTKlb0OrDyht3dFwrV8+fzKAVlWh72varmMQgKHJ9ZY7nFzAV27bjDhe0JoN0k9LgVHyPJ12ecqlsu2SQhNA4y2SdJT+/Ymvb29ydBwwxEjgjY9+kjqIVpKKQ8lTSKiitOqtkmQcb6cOHbYAWZabGisT8bHHwRAkQB4juhHR0dc/by4QD+x9xOVkbBu3doUVF/fytQrMN5OEZHANOGynkNA9Um1z7F3l22RkDUVfLBPP7M/4Qp9YqPs6LHDydj4jtJxIXaAbJmErBWBEbOjumvPuAN36NlnnMvLE3bs3Ja+7+7pTvbu3ePe58UF+ogZIFsmIbQiyGUZdYHkrBF3xztsnAi9/87+fa4diZb0hWRMb2iZBD+ttc+Dg2tSMCyN711726XSf7500YEUCX+7MuXec798+fyHlye2jbpyq9ve/+dunJ8Ht0SCv0ewhtn9wmOPPZr0r+pLjh9/Lj194l7grTx0+Onkhye+l77bvPkbrs77hkDbh+5j7SdaIiHknipjeRPA37x6Nl36GN1VA/3JhQuvuHeq85Mzp1zMYBr9cvLnro5+wCHdIRljuYxOgpKeFPiq/vT3B1oClUaLAOTW0ZE0kwzFDGJICLgti3Fa1TQJWcsihgFWAMkEebYG2/eqZ99zDxnkFrwfXLtmQXu/Ls8xAmTTJIQMURnuK3BIRhJQvIeAvNWBOvKGnp5up6doqaRdu8tlUyTkeQHGWJDTb/4lfSYl3jr6eLo/sO9FFtOn0VifflMgcWJJvfzGnxwJ+jkP+rOudk+rmiIhywiVa84zzykjaeJ7wfDwxkWbJJEAMWyuCJwjj29O4wNtfV3qI0u2EyBLk5CXIWIYbitgx3/w3fQDK0AU4ZkOjKrqSCqZQgcrC97AN4Vjzx1xdTWlsgigvJ39RGkS8jJEjLCf1vv6+tyv0qzhgBF4SbzF1oEsq4t6RbtKtW/VG0qToI6ypNw3ZLQCXmgDRTsuS4YfRDW9svpWOTGrlb8oJNgRZhssYCQ+zHkFPMDJAyQBwJTRd4V52Zc+8zFG9cpMiVaXy1IkkKMrVQ3JycmfOWNJm9++MpWeMXDiBAFnX37JtRcoSfSRHp8+8+M0eFK/d+WK9Pl3Fx78roE+Qn37ZbfnvmzaGUqR8MnNG7kGbN06/1VoQ+PrycTRg+l+AVCAe/X82WRoqJFe3Au8JPXYU3Dw8vqli2k/SOnRt0f68AGHnj+e/Ud8EopyAzsVuru7XZqseSrJnLdxQyTg/llnDegm81TdMlOC/poNkLmeULQs0qHdMLEqACrL2KyYIKJ8CTnbto86EsokTuhodrnMJaFoWaRDIjcjxSgDUrkAAVFkqDxrdbArAzoBD5kKqCRc6sMnKvRMgGzmtCqXhFAHtswmSPZEGfBKkW20D507aJpAIquJTqpsEmXzhjJ7CWxsZrlsi4Qs4zTy/f196Why8iRX1vyWxGBI4zwyXU0G+pOXz00uSKB4r/qQawci676Z5TKThKKASOcKdEieBR43tgFP7q36AoSUxyBpbz3DThNNO3RTLwu8LS+7u8wkwSoL3VvXPvXCj9KR9sH77fyttkhQ7LD1fTJ4FnmWHNvGvy97WhUkoYwXaAQxDLe3I+8bo2dGUEAkIVPvQ1JkbNzYSFasWJG2p69Q3VBZmeUySEJImS0DDMABgmFFQKhPTMBTBF6SMoJhyBtsn5ChxIm2RfXVtsxyuYiEMl5gXRODCJCheWrBy1MEXlJ1eMa7QuAogyh7tG9XIwEOyTIBchEJoVTUL7P/vDE1fTmZOHro/6nyyTRVpj4p8nw6PObSYcoFXlK62W/4elRGXT7Jk4aTgvOMbrUtkkX7iQUk5J0nqCMOSATgyNGDzhAOVsj/mR6rV38tvadM7STVVlLlkujfObY94ViONJw+7AHNK2b/wb3a5cmZD6/l7icWkBByJ7/M5gY2FiiAcRrNj7RYDinz2wu8pP9esYOjelJmXw/TR7Gl7HcG+mALkPXXNAla65EoZ9nj3jdWpCgWCKzAS6o8q77VL9LtyqQy6cmSeQHSkVAmINp13n5HDI24jNF3Q8iwabZIAESIRLWXtCS99vvzbkpCiOoUyazl0pFQpID3AJHxfErPA2/1aQWQG0sHkrJW9KwZXO1sCa0otn/dZ51WpSSU8QLmqoznR5l+fq+O8iRkSIckZXlt/HfUJ0O1OYP2JX5d/zlruUxJ8CuHnnFZGS7JFrfsKEqn2kqqvEjKm5SkqT0SbypLZmg/UYoEgKpTOvQNaYYM6ZFsFTynVnZ6lh2M0GlVKRL8zrJGpQwZAi+ZRUJmH431zvsIqtKDp2bp8suZ/vZviV/Bf7YR3Xe7TENzpomMlvT7y9RpwNs22mKjr6w30N4SUUiCXZOz8vVMwwNkCLykAGXqyACvdnaqNuMNtNdfLgkYJmORRUtRJhBDhtXHfWabAvAiAYmHSm/Z5GkBCXk59+kzJ51yNjd5de27+cOUk4sDaGO90yej/SDLL1/ZfFl9RffWTv+/8Iva4g25nqCpANPNMKxRyhplEWAl0b6ZOa0+kHiodBHE7buie2JDLgkAh4hWCLCd55HRDnjbBwQSJFuxNZcE20mMe8jQiEnG0NuujspIUORtVpLftwuq2faVkNAs8Lz6dZCSZowxOsoDEutdDDt9L8G2lIRYRn7V9PiA/WfZ+z9Y+RYDt0uurQAAAABJRU5ErkJggg==;" vertex="1" parent="1">
          <mxGeometry x="576.67" y="3051.98" width="47.5" height="65.77" as="geometry" />
        </mxCell>
        <mxCell id="8jx-4p8cYo27xZ5NV1dN-665" value="" style="shape=image;verticalLabelPosition=bottom;labelBackgroundColor=#ffffff;verticalAlign=top;aspect=fixed;imageAspect=0;image=data:image/png,iVBORw0KGgoAAAANSUhEUgAAACoAAAAeCAYAAABaKIzgAAAJjElEQVRYCdWY+VcT5xrH+1fd5Zzec39oz709t8v13lrbumEVF0SwBkRFKKssCatsRQRCIGwJgYQQloQsQGRfBFkUhaIorggoQpKZfO6ZQVDbWq3eXzrnPGcmM+/M+8l3nud9v+98wB9k++APwsk7g/oBQQq/H9EvIIo+RFHaSyHi94uI0rXNdu+pyHuBivgRJCBRwONd58mzNZafrMqxuraOTxBkUAlWivfZ3hkUNjT1+334BB8PHy9zZfYOAxMzckzfuseztXX8fqndZrw76juDSgCCKPB4dZWJ2Vt0Xb6GyT1GnXMIg3MI28BV+q5cZ+bOA9a9PgRRUl5KCQn692/vBCp1te7xMnPnLn2TM7T0T6BpuYS60UWZuUMOdWMneudlOsdmGZ76iYWHjxEE4f8PKv3xzZDenF9WRGDNKzB3f4neqZu0D01Ra3VT0exC29JJResltG3dclS0uKlo6ZCvmd3DdI3PMDJ9k0dLT+RU8fq9G9Av9/MbQr9eUZlS3KL1+gTuLi4xNDWDa3gKfXsP5U0OKixOqtu60Nt70Dv7MbgGqXMNoHf0obO5qWntoMHZS5W1C2PPGJ2j04zPzLO0uo4oblJK/fx2ub0WVBpepELxigIPV54yODWDbXACnb2b4oY2SoxWGbS6zU2dvRdT1yBm9xCW7hGaukewXBrGPjCKY2CUXE01nWNTFDc5KbW4sPSM4RqcYmp2nqfr63KuS31tFN2vy/paUCn5l56uMjI9i6XnMlXtveTVW8nRN3OhwUqp2UFVa+dzyCFa+8awD47jHJ7A5OzFNXSFBquLzCI1LZ09nC/WYO0e4YKxjVy9BbXZibFrmPb+UaZvzbPm8eCXR4c3gAqCB1EKcZ3V1TXGr93C3DFCdeslCmqbydIaya62kKe3UWJsp8riRG/txeQaprVnko7ha/x09xH9k7MUVhlRFZZRZmikvaefi9V15Gtr6RqZoNjUxnl9ExlVJrK1JkpNDnSOPqx948zfeYjXK+WuF9HveYV4S1G/4Mfj8XL99l1MHX2UWzrI0zWTpm0gtaIeZaWR9FoLeQYJspOZ2/e5+eAR8w8XubO4xMPlJ3jWvEzPztM/eYNzeUU4+4ZosHWQo9biGh6l1d1Lqckqg6ZXmUgrN5BeXk+m1kixyU5liwtb7wgPHq8gCK/m7Bao6IV795fQNru4YHaSZ2hDWVFPqraeJG09qdVGMnXN5Nc70LVeYtUjIgr+rZAe7BNE5m7fY3JuAcfAGMNTN3AOjlHXaqf/6jSugcuUNbWTa2gmo7oRlSSAFOUGWZALZjtFRgeu/gmeLD/7dUUFr8js3ALJFyoprLeSXqojMvsiSk2drGh6pZGcmmYK6u2UmNrJ01STr6naijxNJfmVNVyZXWD8+j2mZu7RN3GDqZu3cQ2N0XF5kpHpOdSNtg3QmkZZhOTyOmKKtBxNTKdAb6FAb6W01sL9+4uvARVFJqdvcEARSVhSFjmSkgVaFInZnCuokHM0q8ZMnqGVokY76mYX1TY3Blcfze4RnENTXLp8jYGpOVwD41hc3Zg7eqi22Bi+/hMGawedg+MUG23k6trIqmhCVaYjOF7FobOJZJTrSShQs21/MFFJKm4vLPwG6LXr7AkOY0eQgu/Co4nNLqVI30ZCXjkRqQWoNAZydVLV21BbnFRa3RicfTS5R7D1jeMc3CiqKrODsFglingV6cVasjU6uidnyKsxk1vXTFaNhTNZJQTHpJJRpiO3ysiBU7F8/HUAf/nXfzkdn/xm0N3BCr48dJwdQWHsCY3iWLSKTLWBskYXcbkaYnLUFOpbKWm0U9HiosZ2iQZHH+aOISzuy7R0X8HoGkRv7SHlgpbw5BxizhfzQ04J2foWUkp0hCZmoVTXUG52cFaVz/bA43y0PYAP//0Nf/pkG6fikn4H6BEFO4PPyLAHwuOJSMmn2GCjrNFJ3Hk1aaU61GY72uYOatvcGNp7qbMPUP/clOja+6m09lDS6OR8VSPJxTrC0y+iulBLva2HtOJK9p+IYvv+UD799iAfb9/Lh9veAtQn+Ll6fZZDirNsPxLO9qBT7Aw+xe7QM+w5EUlAeDRHolKJy9dQbeuhqN4mH+fWNKGxdKJt6aKqtYsaqxtptpLmfk2zi1KznYQfy0gs1GBw9VNS38bxOBU7j0Xwn8BjfBYQxD92HeTvO77jr9v28OdPviQ6UcWdhXuvyVHBz+PlJ5jaHBw8Gc1XR8P5KuQMO49Hsfv7GAIUsew7GUfgmXOExGWQUV5PfdcIOdVmEn6soNDQRolFKjIHpc0OSsztcoFIgJXSnG/vJi6nmEOn49kdepodRxRsOxDCZ/uO8M9dB/hox17+9sXXBBxV0DMwwtra6wZ8P7JJWF33MD03z48VNexVnGFX6Bl2H5dAE9h3Mp79pxI4GJnE0R9URCgLKGqw0eAeIV1TR2KxFqVGh1JTS2JRBWUWB429o6SX6wmRqvt0PPsUUewKkUDD+CIwhM/3HebTnXvZeSgIbV09t+7dRzJAP7etWwO+bOVkWBGfz8vyyjKj45Mo84vYc+Isu8NiXgE9fDaFozEqQhMyic3TUGXtxuQell+/3tFLS/84F41tnErPJzhOycHIBAIjYl+ABoXxeWAoXx0OIV+tYWb+JqtrqwiCb8v+vfzuX4C+fFb2MX55GlteWaG7t4+YpDS+C5cUTeRAZBKHolLkEeFYbBohiVl8n5pLdH6ZPMukqnVE56qJUOYTmpBB0A9KDp5NYt/pWPaER/NtyGm+CTpBas55xq9dZfXZsw3L9zOGl3++FnSzkbR88Hg8PHi0SKPVhSJOSWBkEgejlFugxxIyCTmXzfcpOYSpCjiZXki4qoCw5FxC4jdAA88mE3A6gQBFJDGpmfQNj7L09Aken2RAJF+62eOv798Iunmb5PDXPR5u3X9AWYOFYzEpBEcrORabjgyaJIHmolDmEZ5WsAUqpYaUIofPJqNISKO5o5tHSyv4vD78snHesKFv4Pw963rJLfrxiSIra6tMzt2Up9mQuDeDHk/IQmtpZ2FxkTWvF0H0I/rEjQ8DzxcRr3qlTXle7N9a0Re3PF8oiwIrz57RP36VpAINoYnZnEjOIyw1nwhVIRFphYSn5HFRZ2L29h3WPJtL55ef9PbH7wQqPV5a9oqCiMcrsLj8FEOLnePKTBTpOSgycojNv8jQ2BTyhwifuPGa357rFy3fG1QQ/KyuezHZXK+AxhVcZHzqhuxRJd8q5+Mvun/7E/8DCEAJGeaVuKIAAAAASUVORK5CYII=;" vertex="1" parent="1">
          <mxGeometry x="300.17" y="3021.98" width="42" height="30" as="geometry" />
        </mxCell>
        <mxCell id="8jx-4p8cYo27xZ5NV1dN-666" value="" style="shape=image;verticalLabelPosition=bottom;labelBackgroundColor=#ffffff;verticalAlign=top;aspect=fixed;imageAspect=0;image=data:image/png,iVBORw0KGgoAAAANSUhEUgAAACoAAAAeCAYAAABaKIzgAAAJjElEQVRYCdWY+VcT5xrH+1fd5Zzec39oz709t8v13lrbumEVF0SwBkRFKKssCatsRQRCIGwJgYQQloQsQGRfBFkUhaIorggoQpKZfO6ZQVDbWq3eXzrnPGcmM+/M+8l3nud9v+98wB9k++APwsk7g/oBQQq/H9EvIIo+RFHaSyHi94uI0rXNdu+pyHuBivgRJCBRwONd58mzNZafrMqxuraOTxBkUAlWivfZ3hkUNjT1+334BB8PHy9zZfYOAxMzckzfuseztXX8fqndZrw76juDSgCCKPB4dZWJ2Vt0Xb6GyT1GnXMIg3MI28BV+q5cZ+bOA9a9PgRRUl5KCQn692/vBCp1te7xMnPnLn2TM7T0T6BpuYS60UWZuUMOdWMneudlOsdmGZ76iYWHjxEE4f8PKv3xzZDenF9WRGDNKzB3f4neqZu0D01Ra3VT0exC29JJResltG3dclS0uKlo6ZCvmd3DdI3PMDJ9k0dLT+RU8fq9G9Av9/MbQr9eUZlS3KL1+gTuLi4xNDWDa3gKfXsP5U0OKixOqtu60Nt70Dv7MbgGqXMNoHf0obO5qWntoMHZS5W1C2PPGJ2j04zPzLO0uo4oblJK/fx2ub0WVBpepELxigIPV54yODWDbXACnb2b4oY2SoxWGbS6zU2dvRdT1yBm9xCW7hGaukewXBrGPjCKY2CUXE01nWNTFDc5KbW4sPSM4RqcYmp2nqfr63KuS31tFN2vy/paUCn5l56uMjI9i6XnMlXtveTVW8nRN3OhwUqp2UFVa+dzyCFa+8awD47jHJ7A5OzFNXSFBquLzCI1LZ09nC/WYO0e4YKxjVy9BbXZibFrmPb+UaZvzbPm8eCXR4c3gAqCB1EKcZ3V1TXGr93C3DFCdeslCmqbydIaya62kKe3UWJsp8riRG/txeQaprVnko7ha/x09xH9k7MUVhlRFZZRZmikvaefi9V15Gtr6RqZoNjUxnl9ExlVJrK1JkpNDnSOPqx948zfeYjXK+WuF9HveYV4S1G/4Mfj8XL99l1MHX2UWzrI0zWTpm0gtaIeZaWR9FoLeQYJspOZ2/e5+eAR8w8XubO4xMPlJ3jWvEzPztM/eYNzeUU4+4ZosHWQo9biGh6l1d1Lqckqg6ZXmUgrN5BeXk+m1kixyU5liwtb7wgPHq8gCK/m7Bao6IV795fQNru4YHaSZ2hDWVFPqraeJG09qdVGMnXN5Nc70LVeYtUjIgr+rZAe7BNE5m7fY3JuAcfAGMNTN3AOjlHXaqf/6jSugcuUNbWTa2gmo7oRlSSAFOUGWZALZjtFRgeu/gmeLD/7dUUFr8js3ALJFyoprLeSXqojMvsiSk2drGh6pZGcmmYK6u2UmNrJ01STr6naijxNJfmVNVyZXWD8+j2mZu7RN3GDqZu3cQ2N0XF5kpHpOdSNtg3QmkZZhOTyOmKKtBxNTKdAb6FAb6W01sL9+4uvARVFJqdvcEARSVhSFjmSkgVaFInZnCuokHM0q8ZMnqGVokY76mYX1TY3Blcfze4RnENTXLp8jYGpOVwD41hc3Zg7eqi22Bi+/hMGawedg+MUG23k6trIqmhCVaYjOF7FobOJZJTrSShQs21/MFFJKm4vLPwG6LXr7AkOY0eQgu/Co4nNLqVI30ZCXjkRqQWoNAZydVLV21BbnFRa3RicfTS5R7D1jeMc3CiqKrODsFglingV6cVasjU6uidnyKsxk1vXTFaNhTNZJQTHpJJRpiO3ysiBU7F8/HUAf/nXfzkdn/xm0N3BCr48dJwdQWHsCY3iWLSKTLWBskYXcbkaYnLUFOpbKWm0U9HiosZ2iQZHH+aOISzuy7R0X8HoGkRv7SHlgpbw5BxizhfzQ04J2foWUkp0hCZmoVTXUG52cFaVz/bA43y0PYAP//0Nf/pkG6fikn4H6BEFO4PPyLAHwuOJSMmn2GCjrNFJ3Hk1aaU61GY72uYOatvcGNp7qbMPUP/clOja+6m09lDS6OR8VSPJxTrC0y+iulBLva2HtOJK9p+IYvv+UD799iAfb9/Lh9veAtQn+Ll6fZZDirNsPxLO9qBT7Aw+xe7QM+w5EUlAeDRHolKJy9dQbeuhqN4mH+fWNKGxdKJt6aKqtYsaqxtptpLmfk2zi1KznYQfy0gs1GBw9VNS38bxOBU7j0Xwn8BjfBYQxD92HeTvO77jr9v28OdPviQ6UcWdhXuvyVHBz+PlJ5jaHBw8Gc1XR8P5KuQMO49Hsfv7GAIUsew7GUfgmXOExGWQUV5PfdcIOdVmEn6soNDQRolFKjIHpc0OSsztcoFIgJXSnG/vJi6nmEOn49kdepodRxRsOxDCZ/uO8M9dB/hox17+9sXXBBxV0DMwwtra6wZ8P7JJWF33MD03z48VNexVnGFX6Bl2H5dAE9h3Mp79pxI4GJnE0R9URCgLKGqw0eAeIV1TR2KxFqVGh1JTS2JRBWUWB429o6SX6wmRqvt0PPsUUewKkUDD+CIwhM/3HebTnXvZeSgIbV09t+7dRzJAP7etWwO+bOVkWBGfz8vyyjKj45Mo84vYc+Isu8NiXgE9fDaFozEqQhMyic3TUGXtxuQell+/3tFLS/84F41tnErPJzhOycHIBAIjYl+ABoXxeWAoXx0OIV+tYWb+JqtrqwiCb8v+vfzuX4C+fFb2MX55GlteWaG7t4+YpDS+C5cUTeRAZBKHolLkEeFYbBohiVl8n5pLdH6ZPMukqnVE56qJUOYTmpBB0A9KDp5NYt/pWPaER/NtyGm+CTpBas55xq9dZfXZsw3L9zOGl3++FnSzkbR88Hg8PHi0SKPVhSJOSWBkEgejlFugxxIyCTmXzfcpOYSpCjiZXki4qoCw5FxC4jdAA88mE3A6gQBFJDGpmfQNj7L09Aken2RAJF+62eOv798Iunmb5PDXPR5u3X9AWYOFYzEpBEcrORabjgyaJIHmolDmEZ5WsAUqpYaUIofPJqNISKO5o5tHSyv4vD78snHesKFv4Pw963rJLfrxiSIra6tMzt2Up9mQuDeDHk/IQmtpZ2FxkTWvF0H0I/rEjQ8DzxcRr3qlTXle7N9a0Re3PF8oiwIrz57RP36VpAINoYnZnEjOIyw1nwhVIRFphYSn5HFRZ2L29h3WPJtL55ef9PbH7wQqPV5a9oqCiMcrsLj8FEOLnePKTBTpOSgycojNv8jQ2BTyhwifuPGa357rFy3fG1QQ/KyuezHZXK+AxhVcZHzqhuxRJd8q5+Mvun/7E/8DCEAJGeaVuKIAAAAASUVORK5CYII=;" vertex="1" parent="1">
          <mxGeometry x="420" y="2975.77" width="42" height="30" as="geometry" />
        </mxCell>
        <mxCell id="8jx-4p8cYo27xZ5NV1dN-667" value="" style="shape=image;verticalLabelPosition=bottom;labelBackgroundColor=#ffffff;verticalAlign=top;aspect=fixed;imageAspect=0;image=data:image/png,iVBORw0KGgoAAAANSUhEUgAAACoAAAAeCAYAAABaKIzgAAAJjElEQVRYCdWY+VcT5xrH+1fd5Zzec39oz709t8v13lrbumEVF0SwBkRFKKssCatsRQRCIGwJgYQQloQsQGRfBFkUhaIorggoQpKZfO6ZQVDbWq3eXzrnPGcmM+/M+8l3nud9v+98wB9k++APwsk7g/oBQQq/H9EvIIo+RFHaSyHi94uI0rXNdu+pyHuBivgRJCBRwONd58mzNZafrMqxuraOTxBkUAlWivfZ3hkUNjT1+334BB8PHy9zZfYOAxMzckzfuseztXX8fqndZrw76juDSgCCKPB4dZWJ2Vt0Xb6GyT1GnXMIg3MI28BV+q5cZ+bOA9a9PgRRUl5KCQn692/vBCp1te7xMnPnLn2TM7T0T6BpuYS60UWZuUMOdWMneudlOsdmGZ76iYWHjxEE4f8PKv3xzZDenF9WRGDNKzB3f4neqZu0D01Ra3VT0exC29JJResltG3dclS0uKlo6ZCvmd3DdI3PMDJ9k0dLT+RU8fq9G9Av9/MbQr9eUZlS3KL1+gTuLi4xNDWDa3gKfXsP5U0OKixOqtu60Nt70Dv7MbgGqXMNoHf0obO5qWntoMHZS5W1C2PPGJ2j04zPzLO0uo4oblJK/fx2ub0WVBpepELxigIPV54yODWDbXACnb2b4oY2SoxWGbS6zU2dvRdT1yBm9xCW7hGaukewXBrGPjCKY2CUXE01nWNTFDc5KbW4sPSM4RqcYmp2nqfr63KuS31tFN2vy/paUCn5l56uMjI9i6XnMlXtveTVW8nRN3OhwUqp2UFVa+dzyCFa+8awD47jHJ7A5OzFNXSFBquLzCI1LZ09nC/WYO0e4YKxjVy9BbXZibFrmPb+UaZvzbPm8eCXR4c3gAqCB1EKcZ3V1TXGr93C3DFCdeslCmqbydIaya62kKe3UWJsp8riRG/txeQaprVnko7ha/x09xH9k7MUVhlRFZZRZmikvaefi9V15Gtr6RqZoNjUxnl9ExlVJrK1JkpNDnSOPqx948zfeYjXK+WuF9HveYV4S1G/4Mfj8XL99l1MHX2UWzrI0zWTpm0gtaIeZaWR9FoLeQYJspOZ2/e5+eAR8w8XubO4xMPlJ3jWvEzPztM/eYNzeUU4+4ZosHWQo9biGh6l1d1Lqckqg6ZXmUgrN5BeXk+m1kixyU5liwtb7wgPHq8gCK/m7Bao6IV795fQNru4YHaSZ2hDWVFPqraeJG09qdVGMnXN5Nc70LVeYtUjIgr+rZAe7BNE5m7fY3JuAcfAGMNTN3AOjlHXaqf/6jSugcuUNbWTa2gmo7oRlSSAFOUGWZALZjtFRgeu/gmeLD/7dUUFr8js3ALJFyoprLeSXqojMvsiSk2drGh6pZGcmmYK6u2UmNrJ01STr6naijxNJfmVNVyZXWD8+j2mZu7RN3GDqZu3cQ2N0XF5kpHpOdSNtg3QmkZZhOTyOmKKtBxNTKdAb6FAb6W01sL9+4uvARVFJqdvcEARSVhSFjmSkgVaFInZnCuokHM0q8ZMnqGVokY76mYX1TY3Blcfze4RnENTXLp8jYGpOVwD41hc3Zg7eqi22Bi+/hMGawedg+MUG23k6trIqmhCVaYjOF7FobOJZJTrSShQs21/MFFJKm4vLPwG6LXr7AkOY0eQgu/Co4nNLqVI30ZCXjkRqQWoNAZydVLV21BbnFRa3RicfTS5R7D1jeMc3CiqKrODsFglingV6cVasjU6uidnyKsxk1vXTFaNhTNZJQTHpJJRpiO3ysiBU7F8/HUAf/nXfzkdn/xm0N3BCr48dJwdQWHsCY3iWLSKTLWBskYXcbkaYnLUFOpbKWm0U9HiosZ2iQZHH+aOISzuy7R0X8HoGkRv7SHlgpbw5BxizhfzQ04J2foWUkp0hCZmoVTXUG52cFaVz/bA43y0PYAP//0Nf/pkG6fikn4H6BEFO4PPyLAHwuOJSMmn2GCjrNFJ3Hk1aaU61GY72uYOatvcGNp7qbMPUP/clOja+6m09lDS6OR8VSPJxTrC0y+iulBLva2HtOJK9p+IYvv+UD799iAfb9/Lh9veAtQn+Ll6fZZDirNsPxLO9qBT7Aw+xe7QM+w5EUlAeDRHolKJy9dQbeuhqN4mH+fWNKGxdKJt6aKqtYsaqxtptpLmfk2zi1KznYQfy0gs1GBw9VNS38bxOBU7j0Xwn8BjfBYQxD92HeTvO77jr9v28OdPviQ6UcWdhXuvyVHBz+PlJ5jaHBw8Gc1XR8P5KuQMO49Hsfv7GAIUsew7GUfgmXOExGWQUV5PfdcIOdVmEn6soNDQRolFKjIHpc0OSsztcoFIgJXSnG/vJi6nmEOn49kdepodRxRsOxDCZ/uO8M9dB/hox17+9sXXBBxV0DMwwtra6wZ8P7JJWF33MD03z48VNexVnGFX6Bl2H5dAE9h3Mp79pxI4GJnE0R9URCgLKGqw0eAeIV1TR2KxFqVGh1JTS2JRBWUWB429o6SX6wmRqvt0PPsUUewKkUDD+CIwhM/3HebTnXvZeSgIbV09t+7dRzJAP7etWwO+bOVkWBGfz8vyyjKj45Mo84vYc+Isu8NiXgE9fDaFozEqQhMyic3TUGXtxuQell+/3tFLS/84F41tnErPJzhOycHIBAIjYl+ABoXxeWAoXx0OIV+tYWb+JqtrqwiCb8v+vfzuX4C+fFb2MX55GlteWaG7t4+YpDS+C5cUTeRAZBKHolLkEeFYbBohiVl8n5pLdH6ZPMukqnVE56qJUOYTmpBB0A9KDp5NYt/pWPaER/NtyGm+CTpBas55xq9dZfXZsw3L9zOGl3++FnSzkbR88Hg8PHi0SKPVhSJOSWBkEgejlFugxxIyCTmXzfcpOYSpCjiZXki4qoCw5FxC4jdAA88mE3A6gQBFJDGpmfQNj7L09Aken2RAJF+62eOv798Iunmb5PDXPR5u3X9AWYOFYzEpBEcrORabjgyaJIHmolDmEZ5WsAUqpYaUIofPJqNISKO5o5tHSyv4vD78snHesKFv4Pw963rJLfrxiSIra6tMzt2Up9mQuDeDHk/IQmtpZ2FxkTWvF0H0I/rEjQ8DzxcRr3qlTXle7N9a0Re3PF8oiwIrz57RP36VpAINoYnZnEjOIyw1nwhVIRFphYSn5HFRZ2L29h3WPJtL55ef9PbH7wQqPV5a9oqCiMcrsLj8FEOLnePKTBTpOSgycojNv8jQ2BTyhwifuPGa357rFy3fG1QQ/KyuezHZXK+AxhVcZHzqhuxRJd8q5+Mvun/7E/8DCEAJGeaVuKIAAAAASUVORK5CYII=;" vertex="1" parent="1">
          <mxGeometry x="499.99999999999994" y="2880" width="42" height="30" as="geometry" />
        </mxCell>
        <mxCell id="8jx-4p8cYo27xZ5NV1dN-668" value="" style="shape=image;verticalLabelPosition=bottom;labelBackgroundColor=#ffffff;verticalAlign=top;aspect=fixed;imageAspect=0;image=data:image/png,iVBORw0KGgoAAAANSUhEUgAAACoAAAAeCAYAAABaKIzgAAAJjElEQVRYCdWY+VcT5xrH+1fd5Zzec39oz709t8v13lrbumEVF0SwBkRFKKssCatsRQRCIGwJgYQQloQsQGRfBFkUhaIorggoQpKZfO6ZQVDbWq3eXzrnPGcmM+/M+8l3nud9v+98wB9k++APwsk7g/oBQQq/H9EvIIo+RFHaSyHi94uI0rXNdu+pyHuBivgRJCBRwONd58mzNZafrMqxuraOTxBkUAlWivfZ3hkUNjT1+334BB8PHy9zZfYOAxMzckzfuseztXX8fqndZrw76juDSgCCKPB4dZWJ2Vt0Xb6GyT1GnXMIg3MI28BV+q5cZ+bOA9a9PgRRUl5KCQn692/vBCp1te7xMnPnLn2TM7T0T6BpuYS60UWZuUMOdWMneudlOsdmGZ76iYWHjxEE4f8PKv3xzZDenF9WRGDNKzB3f4neqZu0D01Ra3VT0exC29JJResltG3dclS0uKlo6ZCvmd3DdI3PMDJ9k0dLT+RU8fq9G9Av9/MbQr9eUZlS3KL1+gTuLi4xNDWDa3gKfXsP5U0OKixOqtu60Nt70Dv7MbgGqXMNoHf0obO5qWntoMHZS5W1C2PPGJ2j04zPzLO0uo4oblJK/fx2ub0WVBpepELxigIPV54yODWDbXACnb2b4oY2SoxWGbS6zU2dvRdT1yBm9xCW7hGaukewXBrGPjCKY2CUXE01nWNTFDc5KbW4sPSM4RqcYmp2nqfr63KuS31tFN2vy/paUCn5l56uMjI9i6XnMlXtveTVW8nRN3OhwUqp2UFVa+dzyCFa+8awD47jHJ7A5OzFNXSFBquLzCI1LZ09nC/WYO0e4YKxjVy9BbXZibFrmPb+UaZvzbPm8eCXR4c3gAqCB1EKcZ3V1TXGr93C3DFCdeslCmqbydIaya62kKe3UWJsp8riRG/txeQaprVnko7ha/x09xH9k7MUVhlRFZZRZmikvaefi9V15Gtr6RqZoNjUxnl9ExlVJrK1JkpNDnSOPqx948zfeYjXK+WuF9HveYV4S1G/4Mfj8XL99l1MHX2UWzrI0zWTpm0gtaIeZaWR9FoLeQYJspOZ2/e5+eAR8w8XubO4xMPlJ3jWvEzPztM/eYNzeUU4+4ZosHWQo9biGh6l1d1Lqckqg6ZXmUgrN5BeXk+m1kixyU5liwtb7wgPHq8gCK/m7Bao6IV795fQNru4YHaSZ2hDWVFPqraeJG09qdVGMnXN5Nc70LVeYtUjIgr+rZAe7BNE5m7fY3JuAcfAGMNTN3AOjlHXaqf/6jSugcuUNbWTa2gmo7oRlSSAFOUGWZALZjtFRgeu/gmeLD/7dUUFr8js3ALJFyoprLeSXqojMvsiSk2drGh6pZGcmmYK6u2UmNrJ01STr6naijxNJfmVNVyZXWD8+j2mZu7RN3GDqZu3cQ2N0XF5kpHpOdSNtg3QmkZZhOTyOmKKtBxNTKdAb6FAb6W01sL9+4uvARVFJqdvcEARSVhSFjmSkgVaFInZnCuokHM0q8ZMnqGVokY76mYX1TY3Blcfze4RnENTXLp8jYGpOVwD41hc3Zg7eqi22Bi+/hMGawedg+MUG23k6trIqmhCVaYjOF7FobOJZJTrSShQs21/MFFJKm4vLPwG6LXr7AkOY0eQgu/Co4nNLqVI30ZCXjkRqQWoNAZydVLV21BbnFRa3RicfTS5R7D1jeMc3CiqKrODsFglingV6cVasjU6uidnyKsxk1vXTFaNhTNZJQTHpJJRpiO3ysiBU7F8/HUAf/nXfzkdn/xm0N3BCr48dJwdQWHsCY3iWLSKTLWBskYXcbkaYnLUFOpbKWm0U9HiosZ2iQZHH+aOISzuy7R0X8HoGkRv7SHlgpbw5BxizhfzQ04J2foWUkp0hCZmoVTXUG52cFaVz/bA43y0PYAP//0Nf/pkG6fikn4H6BEFO4PPyLAHwuOJSMmn2GCjrNFJ3Hk1aaU61GY72uYOatvcGNp7qbMPUP/clOja+6m09lDS6OR8VSPJxTrC0y+iulBLva2HtOJK9p+IYvv+UD799iAfb9/Lh9veAtQn+Ll6fZZDirNsPxLO9qBT7Aw+xe7QM+w5EUlAeDRHolKJy9dQbeuhqN4mH+fWNKGxdKJt6aKqtYsaqxtptpLmfk2zi1KznYQfy0gs1GBw9VNS38bxOBU7j0Xwn8BjfBYQxD92HeTvO77jr9v28OdPviQ6UcWdhXuvyVHBz+PlJ5jaHBw8Gc1XR8P5KuQMO49Hsfv7GAIUsew7GUfgmXOExGWQUV5PfdcIOdVmEn6soNDQRolFKjIHpc0OSsztcoFIgJXSnG/vJi6nmEOn49kdepodRxRsOxDCZ/uO8M9dB/hox17+9sXXBBxV0DMwwtra6wZ8P7JJWF33MD03z48VNexVnGFX6Bl2H5dAE9h3Mp79pxI4GJnE0R9URCgLKGqw0eAeIV1TR2KxFqVGh1JTS2JRBWUWB429o6SX6wmRqvt0PPsUUewKkUDD+CIwhM/3HebTnXvZeSgIbV09t+7dRzJAP7etWwO+bOVkWBGfz8vyyjKj45Mo84vYc+Isu8NiXgE9fDaFozEqQhMyic3TUGXtxuQell+/3tFLS/84F41tnErPJzhOycHIBAIjYl+ABoXxeWAoXx0OIV+tYWb+JqtrqwiCb8v+vfzuX4C+fFb2MX55GlteWaG7t4+YpDS+C5cUTeRAZBKHolLkEeFYbBohiVl8n5pLdH6ZPMukqnVE56qJUOYTmpBB0A9KDp5NYt/pWPaER/NtyGm+CTpBas55xq9dZfXZsw3L9zOGl3++FnSzkbR88Hg8PHi0SKPVhSJOSWBkEgejlFugxxIyCTmXzfcpOYSpCjiZXki4qoCw5FxC4jdAA88mE3A6gQBFJDGpmfQNj7L09Aken2RAJF+62eOv798Iunmb5PDXPR5u3X9AWYOFYzEpBEcrORabjgyaJIHmolDmEZ5WsAUqpYaUIofPJqNISKO5o5tHSyv4vD78snHesKFv4Pw963rJLfrxiSIra6tMzt2Up9mQuDeDHk/IQmtpZ2FxkTWvF0H0I/rEjQ8DzxcRr3qlTXle7N9a0Re3PF8oiwIrz57RP36VpAINoYnZnEjOIyw1nwhVIRFphYSn5HFRZ2L29h3WPJtL55ef9PbH7wQqPV5a9oqCiMcrsLj8FEOLnePKTBTpOSgycojNv8jQ2BTyhwifuPGa357rFy3fG1QQ/KyuezHZXK+AxhVcZHzqhuxRJd8q5+Mvun/7E/8DCEAJGeaVuKIAAAAASUVORK5CYII=;" vertex="1" parent="1">
          <mxGeometry x="618.75" y="2740" width="42" height="30" as="geometry" />
        </mxCell>
        <mxCell id="8jx-4p8cYo27xZ5NV1dN-669" value="" style="shape=image;verticalLabelPosition=bottom;labelBackgroundColor=#ffffff;verticalAlign=top;aspect=fixed;imageAspect=0;image=data:image/png,iVBORw0KGgoAAAANSUhEUgAAACoAAAAeCAYAAABaKIzgAAAJjElEQVRYCdWY+VcT5xrH+1fd5Zzec39oz709t8v13lrbumEVF0SwBkRFKKssCatsRQRCIGwJgYQQloQsQGRfBFkUhaIorggoQpKZfO6ZQVDbWq3eXzrnPGcmM+/M+8l3nud9v+98wB9k++APwsk7g/oBQQq/H9EvIIo+RFHaSyHi94uI0rXNdu+pyHuBivgRJCBRwONd58mzNZafrMqxuraOTxBkUAlWivfZ3hkUNjT1+334BB8PHy9zZfYOAxMzckzfuseztXX8fqndZrw76juDSgCCKPB4dZWJ2Vt0Xb6GyT1GnXMIg3MI28BV+q5cZ+bOA9a9PgRRUl5KCQn692/vBCp1te7xMnPnLn2TM7T0T6BpuYS60UWZuUMOdWMneudlOsdmGZ76iYWHjxEE4f8PKv3xzZDenF9WRGDNKzB3f4neqZu0D01Ra3VT0exC29JJResltG3dclS0uKlo6ZCvmd3DdI3PMDJ9k0dLT+RU8fq9G9Av9/MbQr9eUZlS3KL1+gTuLi4xNDWDa3gKfXsP5U0OKixOqtu60Nt70Dv7MbgGqXMNoHf0obO5qWntoMHZS5W1C2PPGJ2j04zPzLO0uo4oblJK/fx2ub0WVBpepELxigIPV54yODWDbXACnb2b4oY2SoxWGbS6zU2dvRdT1yBm9xCW7hGaukewXBrGPjCKY2CUXE01nWNTFDc5KbW4sPSM4RqcYmp2nqfr63KuS31tFN2vy/paUCn5l56uMjI9i6XnMlXtveTVW8nRN3OhwUqp2UFVa+dzyCFa+8awD47jHJ7A5OzFNXSFBquLzCI1LZ09nC/WYO0e4YKxjVy9BbXZibFrmPb+UaZvzbPm8eCXR4c3gAqCB1EKcZ3V1TXGr93C3DFCdeslCmqbydIaya62kKe3UWJsp8riRG/txeQaprVnko7ha/x09xH9k7MUVhlRFZZRZmikvaefi9V15Gtr6RqZoNjUxnl9ExlVJrK1JkpNDnSOPqx948zfeYjXK+WuF9HveYV4S1G/4Mfj8XL99l1MHX2UWzrI0zWTpm0gtaIeZaWR9FoLeQYJspOZ2/e5+eAR8w8XubO4xMPlJ3jWvEzPztM/eYNzeUU4+4ZosHWQo9biGh6l1d1Lqckqg6ZXmUgrN5BeXk+m1kixyU5liwtb7wgPHq8gCK/m7Bao6IV795fQNru4YHaSZ2hDWVFPqraeJG09qdVGMnXN5Nc70LVeYtUjIgr+rZAe7BNE5m7fY3JuAcfAGMNTN3AOjlHXaqf/6jSugcuUNbWTa2gmo7oRlSSAFOUGWZALZjtFRgeu/gmeLD/7dUUFr8js3ALJFyoprLeSXqojMvsiSk2drGh6pZGcmmYK6u2UmNrJ01STr6naijxNJfmVNVyZXWD8+j2mZu7RN3GDqZu3cQ2N0XF5kpHpOdSNtg3QmkZZhOTyOmKKtBxNTKdAb6FAb6W01sL9+4uvARVFJqdvcEARSVhSFjmSkgVaFInZnCuokHM0q8ZMnqGVokY76mYX1TY3Blcfze4RnENTXLp8jYGpOVwD41hc3Zg7eqi22Bi+/hMGawedg+MUG23k6trIqmhCVaYjOF7FobOJZJTrSShQs21/MFFJKm4vLPwG6LXr7AkOY0eQgu/Co4nNLqVI30ZCXjkRqQWoNAZydVLV21BbnFRa3RicfTS5R7D1jeMc3CiqKrODsFglingV6cVasjU6uidnyKsxk1vXTFaNhTNZJQTHpJJRpiO3ysiBU7F8/HUAf/nXfzkdn/xm0N3BCr48dJwdQWHsCY3iWLSKTLWBskYXcbkaYnLUFOpbKWm0U9HiosZ2iQZHH+aOISzuy7R0X8HoGkRv7SHlgpbw5BxizhfzQ04J2foWUkp0hCZmoVTXUG52cFaVz/bA43y0PYAP//0Nf/pkG6fikn4H6BEFO4PPyLAHwuOJSMmn2GCjrNFJ3Hk1aaU61GY72uYOatvcGNp7qbMPUP/clOja+6m09lDS6OR8VSPJxTrC0y+iulBLva2HtOJK9p+IYvv+UD799iAfb9/Lh9veAtQn+Ll6fZZDirNsPxLO9qBT7Aw+xe7QM+w5EUlAeDRHolKJy9dQbeuhqN4mH+fWNKGxdKJt6aKqtYsaqxtptpLmfk2zi1KznYQfy0gs1GBw9VNS38bxOBU7j0Xwn8BjfBYQxD92HeTvO77jr9v28OdPviQ6UcWdhXuvyVHBz+PlJ5jaHBw8Gc1XR8P5KuQMO49Hsfv7GAIUsew7GUfgmXOExGWQUV5PfdcIOdVmEn6soNDQRolFKjIHpc0OSsztcoFIgJXSnG/vJi6nmEOn49kdepodRxRsOxDCZ/uO8M9dB/hox17+9sXXBBxV0DMwwtra6wZ8P7JJWF33MD03z48VNexVnGFX6Bl2H5dAE9h3Mp79pxI4GJnE0R9URCgLKGqw0eAeIV1TR2KxFqVGh1JTS2JRBWUWB429o6SX6wmRqvt0PPsUUewKkUDD+CIwhM/3HebTnXvZeSgIbV09t+7dRzJAP7etWwO+bOVkWBGfz8vyyjKj45Mo84vYc+Isu8NiXgE9fDaFozEqQhMyic3TUGXtxuQell+/3tFLS/84F41tnErPJzhOycHIBAIjYl+ABoXxeWAoXx0OIV+tYWb+JqtrqwiCb8v+vfzuX4C+fFb2MX55GlteWaG7t4+YpDS+C5cUTeRAZBKHolLkEeFYbBohiVl8n5pLdH6ZPMukqnVE56qJUOYTmpBB0A9KDp5NYt/pWPaER/NtyGm+CTpBas55xq9dZfXZsw3L9zOGl3++FnSzkbR88Hg8PHi0SKPVhSJOSWBkEgejlFugxxIyCTmXzfcpOYSpCjiZXki4qoCw5FxC4jdAA88mE3A6gQBFJDGpmfQNj7L09Aken2RAJF+62eOv798Iunmb5PDXPR5u3X9AWYOFYzEpBEcrORabjgyaJIHmolDmEZ5WsAUqpYaUIofPJqNISKO5o5tHSyv4vD78snHesKFv4Pw963rJLfrxiSIra6tMzt2Up9mQuDeDHk/IQmtpZ2FxkTWvF0H0I/rEjQ8DzxcRr3qlTXle7N9a0Re3PF8oiwIrz57RP36VpAINoYnZnEjOIyw1nwhVIRFphYSn5HFRZ2L29h3WPJtL55ef9PbH7wQqPV5a9oqCiMcrsLj8FEOLnePKTBTpOSgycojNv8jQ2BTyhwifuPGa357rFy3fG1QQ/KyuezHZXK+AxhVcZHzqhuxRJd8q5+Mvun/7E/8DCEAJGeaVuKIAAAAASUVORK5CYII=;" vertex="1" parent="1">
          <mxGeometry x="529.25" y="2991.98" width="42" height="30" as="geometry" />
        </mxCell>
        <mxCell id="8jx-4p8cYo27xZ5NV1dN-670" value="" style="shape=image;verticalLabelPosition=bottom;labelBackgroundColor=#ffffff;verticalAlign=top;aspect=fixed;imageAspect=0;image=data:image/png,iVBORw0KGgoAAAANSUhEUgAAACoAAAAeCAYAAABaKIzgAAAJjElEQVRYCdWY+VcT5xrH+1fd5Zzec39oz709t8v13lrbumEVF0SwBkRFKKssCatsRQRCIGwJgYQQloQsQGRfBFkUhaIorggoQpKZfO6ZQVDbWq3eXzrnPGcmM+/M+8l3nud9v+98wB9k++APwsk7g/oBQQq/H9EvIIo+RFHaSyHi94uI0rXNdu+pyHuBivgRJCBRwONd58mzNZafrMqxuraOTxBkUAlWivfZ3hkUNjT1+334BB8PHy9zZfYOAxMzckzfuseztXX8fqndZrw76juDSgCCKPB4dZWJ2Vt0Xb6GyT1GnXMIg3MI28BV+q5cZ+bOA9a9PgRRUl5KCQn692/vBCp1te7xMnPnLn2TM7T0T6BpuYS60UWZuUMOdWMneudlOsdmGZ76iYWHjxEE4f8PKv3xzZDenF9WRGDNKzB3f4neqZu0D01Ra3VT0exC29JJResltG3dclS0uKlo6ZCvmd3DdI3PMDJ9k0dLT+RU8fq9G9Av9/MbQr9eUZlS3KL1+gTuLi4xNDWDa3gKfXsP5U0OKixOqtu60Nt70Dv7MbgGqXMNoHf0obO5qWntoMHZS5W1C2PPGJ2j04zPzLO0uo4oblJK/fx2ub0WVBpepELxigIPV54yODWDbXACnb2b4oY2SoxWGbS6zU2dvRdT1yBm9xCW7hGaukewXBrGPjCKY2CUXE01nWNTFDc5KbW4sPSM4RqcYmp2nqfr63KuS31tFN2vy/paUCn5l56uMjI9i6XnMlXtveTVW8nRN3OhwUqp2UFVa+dzyCFa+8awD47jHJ7A5OzFNXSFBquLzCI1LZ09nC/WYO0e4YKxjVy9BbXZibFrmPb+UaZvzbPm8eCXR4c3gAqCB1EKcZ3V1TXGr93C3DFCdeslCmqbydIaya62kKe3UWJsp8riRG/txeQaprVnko7ha/x09xH9k7MUVhlRFZZRZmikvaefi9V15Gtr6RqZoNjUxnl9ExlVJrK1JkpNDnSOPqx948zfeYjXK+WuF9HveYV4S1G/4Mfj8XL99l1MHX2UWzrI0zWTpm0gtaIeZaWR9FoLeQYJspOZ2/e5+eAR8w8XubO4xMPlJ3jWvEzPztM/eYNzeUU4+4ZosHWQo9biGh6l1d1Lqckqg6ZXmUgrN5BeXk+m1kixyU5liwtb7wgPHq8gCK/m7Bao6IV795fQNru4YHaSZ2hDWVFPqraeJG09qdVGMnXN5Nc70LVeYtUjIgr+rZAe7BNE5m7fY3JuAcfAGMNTN3AOjlHXaqf/6jSugcuUNbWTa2gmo7oRlSSAFOUGWZALZjtFRgeu/gmeLD/7dUUFr8js3ALJFyoprLeSXqojMvsiSk2drGh6pZGcmmYK6u2UmNrJ01STr6naijxNJfmVNVyZXWD8+j2mZu7RN3GDqZu3cQ2N0XF5kpHpOdSNtg3QmkZZhOTyOmKKtBxNTKdAb6FAb6W01sL9+4uvARVFJqdvcEARSVhSFjmSkgVaFInZnCuokHM0q8ZMnqGVokY76mYX1TY3Blcfze4RnENTXLp8jYGpOVwD41hc3Zg7eqi22Bi+/hMGawedg+MUG23k6trIqmhCVaYjOF7FobOJZJTrSShQs21/MFFJKm4vLPwG6LXr7AkOY0eQgu/Co4nNLqVI30ZCXjkRqQWoNAZydVLV21BbnFRa3RicfTS5R7D1jeMc3CiqKrODsFglingV6cVasjU6uidnyKsxk1vXTFaNhTNZJQTHpJJRpiO3ysiBU7F8/HUAf/nXfzkdn/xm0N3BCr48dJwdQWHsCY3iWLSKTLWBskYXcbkaYnLUFOpbKWm0U9HiosZ2iQZHH+aOISzuy7R0X8HoGkRv7SHlgpbw5BxizhfzQ04J2foWUkp0hCZmoVTXUG52cFaVz/bA43y0PYAP//0Nf/pkG6fikn4H6BEFO4PPyLAHwuOJSMmn2GCjrNFJ3Hk1aaU61GY72uYOatvcGNp7qbMPUP/clOja+6m09lDS6OR8VSPJxTrC0y+iulBLva2HtOJK9p+IYvv+UD799iAfb9/Lh9veAtQn+Ll6fZZDirNsPxLO9qBT7Aw+xe7QM+w5EUlAeDRHolKJy9dQbeuhqN4mH+fWNKGxdKJt6aKqtYsaqxtptpLmfk2zi1KznYQfy0gs1GBw9VNS38bxOBU7j0Xwn8BjfBYQxD92HeTvO77jr9v28OdPviQ6UcWdhXuvyVHBz+PlJ5jaHBw8Gc1XR8P5KuQMO49Hsfv7GAIUsew7GUfgmXOExGWQUV5PfdcIOdVmEn6soNDQRolFKjIHpc0OSsztcoFIgJXSnG/vJi6nmEOn49kdepodRxRsOxDCZ/uO8M9dB/hox17+9sXXBBxV0DMwwtra6wZ8P7JJWF33MD03z48VNexVnGFX6Bl2H5dAE9h3Mp79pxI4GJnE0R9URCgLKGqw0eAeIV1TR2KxFqVGh1JTS2JRBWUWB429o6SX6wmRqvt0PPsUUewKkUDD+CIwhM/3HebTnXvZeSgIbV09t+7dRzJAP7etWwO+bOVkWBGfz8vyyjKj45Mo84vYc+Isu8NiXgE9fDaFozEqQhMyic3TUGXtxuQell+/3tFLS/84F41tnErPJzhOycHIBAIjYl+ABoXxeWAoXx0OIV+tYWb+JqtrqwiCb8v+vfzuX4C+fFb2MX55GlteWaG7t4+YpDS+C5cUTeRAZBKHolLkEeFYbBohiVl8n5pLdH6ZPMukqnVE56qJUOYTmpBB0A9KDp5NYt/pWPaER/NtyGm+CTpBas55xq9dZfXZsw3L9zOGl3++FnSzkbR88Hg8PHi0SKPVhSJOSWBkEgejlFugxxIyCTmXzfcpOYSpCjiZXki4qoCw5FxC4jdAA88mE3A6gQBFJDGpmfQNj7L09Aken2RAJF+62eOv798Iunmb5PDXPR5u3X9AWYOFYzEpBEcrORabjgyaJIHmolDmEZ5WsAUqpYaUIofPJqNISKO5o5tHSyv4vD78snHesKFv4Pw963rJLfrxiSIra6tMzt2Up9mQuDeDHk/IQmtpZ2FxkTWvF0H0I/rEjQ8DzxcRr3qlTXle7N9a0Re3PF8oiwIrz57RP36VpAINoYnZnEjOIyw1nwhVIRFphYSn5HFRZ2L29h3WPJtL55ef9PbH7wQqPV5a9oqCiMcrsLj8FEOLnePKTBTpOSgycojNv8jQ2BTyhwifuPGa357rFy3fG1QQ/KyuezHZXK+AxhVcZHzqhuxRJd8q5+Mvun/7E/8DCEAJGeaVuKIAAAAASUVORK5CYII=;" vertex="1" parent="1">
          <mxGeometry x="650" y="3124.67" width="42" height="30" as="geometry" />
        </mxCell>
        <mxCell id="8jx-4p8cYo27xZ5NV1dN-673" value="" style="shape=singleArrow;direction=north;whiteSpace=wrap;html=1;rotation=30;fillColor=#dae8fc;strokeColor=#6c8ebf;" vertex="1" parent="1">
          <mxGeometry x="332.17" y="2977.32" width="10" height="50" as="geometry" />
        </mxCell>
        <mxCell id="8jx-4p8cYo27xZ5NV1dN-674" value="" style="shape=singleArrow;direction=north;whiteSpace=wrap;html=1;rotation=-60;fillColor=#dae8fc;strokeColor=#6c8ebf;" vertex="1" parent="1">
          <mxGeometry x="410" y="2940" width="10" height="50" as="geometry" />
        </mxCell>
        <mxCell id="8jx-4p8cYo27xZ5NV1dN-677" value="" style="shape=singleArrow;direction=north;whiteSpace=wrap;html=1;rotation=15;fillColor=#f8cecc;strokeColor=#b85450;" vertex="1" parent="1">
          <mxGeometry x="572" y="2860.1" width="15" height="140" as="geometry" />
        </mxCell>
        <mxCell id="8jx-4p8cYo27xZ5NV1dN-679" value="" style="shape=singleArrow;direction=north;whiteSpace=wrap;html=1;rotation=-60;fillColor=#dae8fc;strokeColor=#6c8ebf;" vertex="1" parent="1">
          <mxGeometry x="410" y="2940" width="10" height="50" as="geometry" />
        </mxCell>
      </root>
    </mxGraphModel>
  </diagram>
</mxfile>
